<svg width="1024" height="1024" viewBox="0 0 1024 1024" fill="none" xmlns="http://www.w3.org/2000/svg">
  <defs>
    <linearGradient id="bg" x1="176" y1="120" x2="846" y2="924" gradientUnits="userSpaceOnUse">
      <stop offset="0" stop-color="#DDF8FF"/>
      <stop offset="0.42" stop-color="#9FE9FF"/>
      <stop offset="1" stop-color="#6FD6E6"/>
    </linearGradient>
    <radialGradient id="bgGlow" cx="0" cy="0" r="1" gradientUnits="userSpaceOnUse" gradientTransform="translate(358 274) rotate(46.5) scale(380.516 370.741)">
      <stop stop-color="#FFFFFF" stop-opacity="0.58"/>
      <stop offset="0.44" stop-color="#DFFFFF" stop-opacity="0.18"/>
      <stop offset="1" stop-color="#DFFFFF" stop-opacity="0"/>
    </radialGradient>
    <radialGradient id="g1" cx="0" cy="0" r="1" gradientUnits="userSpaceOnUse" gradientTransform="translate(373 378) rotate(39.4) scale(294.113 281.691)">
      <stop stop-color="#FFFFFF" stop-opacity="1"/>
      <stop offset="0.26" stop-color="#F9FEFF" stop-opacity="0.97"/>
      <stop offset="0.62" stop-color="#D7F2FF" stop-opacity="0.86"/>
      <stop offset="0.88" stop-color="#8AE2FF" stop-opacity="0.44"/>
      <stop offset="1" stop-color="#8AE2FF" stop-opacity="0.08"/>
    </radialGradient>
    <radialGradient id="g2" cx="0" cy="0" r="1" gradientUnits="userSpaceOnUse" gradientTransform="translate(521 620) rotate(90) scale(289 259)">
      <stop stop-color="#FFFFFF" stop-opacity="0.99"/>
      <stop offset="0.28" stop-color="#FBFFFE" stop-opacity="0.95"/>
      <stop offset="0.62" stop-color="#DFFFF4" stop-opacity="0.82"/>
      <stop offset="0.88" stop-color="#7CEBD6" stop-opacity="0.42"/>
      <stop offset="1" stop-color="#7CEBD6" stop-opacity="0.08"/>
    </radialGradient>
    <radialGradient id="g3" cx="0" cy="0" r="1" gradientUnits="userSpaceOnUse" gradientTransform="translate(674 383) rotate(128.7) scale(284.355 266.105)">
      <stop stop-color="#FFFFFF" stop-opacity="1"/>
      <stop offset="0.26" stop-color="#F8FDFF" stop-opacity="0.97"/>
      <stop offset="0.6" stop-color="#DCF5FF" stop-opacity="0.84"/>
      <stop offset="0.88" stop-color="#9EDFFF" stop-opacity="0.42"/>
      <stop offset="1" stop-color="#9EDFFF" stop-opacity="0.08"/>
    </radialGradient>
    <linearGradient id="outline" x1="241" y1="201" x2="785" y2="753" gradientUnits="userSpaceOnUse">
      <stop stop-color="#FFFFFF" stop-opacity="0.96"/>
      <stop offset="0.55" stop-color="#EFFBFF" stop-opacity="0.74"/>
      <stop offset="1" stop-color="#CDEBF4" stop-opacity="0.4"/>
    </linearGradient>
    <filter id="blur" x="61" y="52" width="901" height="887" filterUnits="userSpaceOnUse" color-interpolation-filters="sRGB">
      <feGaussianBlur stdDeviation="44"/>
    </filter>
    <filter id="shadow" x="138" y="142" width="750" height="712" filterUnits="userSpaceOnUse" color-interpolation-filters="sRGB">
      <feOffset dy="24"/>
      <feGaussianBlur stdDeviation="28"/>
      <feColorMatrix type="matrix" values="0 0 0 0 0.247059 0 0 0 0 0.67451 0 0 0 0 0.756863 0 0 0 0.26 0"/>
      <feBlend in2="SourceGraphic" result="shape"/>
    </filter>
  </defs>

  <rect width="1024" height="1024" rx="232" fill="url(#bg)"/>
  <rect width="1024" height="1024" rx="232" fill="url(#bgGlow)"/>

  <g opacity="0.92" filter="url(#blur)">
    <circle cx="301" cy="254" r="150" fill="#F7FFFF"/>
    <circle cx="788" cy="277" r="116" fill="#B7F0FF"/>
    <circle cx="767" cy="760" r="106" fill="#A8F2E8"/>
  </g>

  <g filter="url(#shadow)">
    <path d="M302 286C373 239 467 251 518 321C570 392 558 491 487 539C416 586 321 575 269 504C218 433 230 333 302 286Z" fill="url(#g1)" stroke="url(#outline)" stroke-width="3"/>
    <path d="M410 478C492 433 593 452 643 529C693 606 671 707 588 752C505 796 404 777 354 700C304 623 327 522 410 478Z" fill="url(#g2)" stroke="url(#outline)" stroke-width="3"/>
    <path d="M572 287C644 241 736 255 783 323C830 391 813 487 741 532C669 578 577 563 530 495C483 427 500 332 572 287Z" fill="url(#g3)" stroke="url(#outline)" stroke-width="3"/>

    <path d="M356 333C389 306 434 309 463 341" stroke="white" stroke-opacity="0.7" stroke-width="12" stroke-linecap="round"/>
    <path d="M609 332C642 309 685 315 710 345" stroke="white" stroke-opacity="0.62" stroke-width="11" stroke-linecap="round"/>
    <path d="M451 520C502 494 564 499 603 537" stroke="white" stroke-opacity="0.6" stroke-width="12" stroke-linecap="round"/>

    <ellipse cx="521" cy="425" rx="26" ry="25" fill="white" fill-opacity="0.82"/>
    <ellipse cx="521" cy="425" rx="58" ry="56" fill="white" fill-opacity="0.2"/>

    <path d="M319 330C365 287 432 270 490 288" stroke="white" stroke-opacity="0.24" stroke-width="2"/>
    <path d="M432 719C514 754 611 739 668 681" stroke="white" stroke-opacity="0.22" stroke-width="2"/>
    <path d="M603 293C668 276 734 301 767 352" stroke="white" stroke-opacity="0.22" stroke-width="2"/>
  </g>

  <path d="M538 286L546 326L586 333L546 340L538 380L530 340L490 333L530 326L538 286Z" fill="white" fill-opacity="0.98"/>
</svg>
